<?xml version="1.0" standalone="no"?>
<!DOCTYPE svg PUBLIC "-//W3C//DTD SVG 20010904//EN"
 "http://www.w3.org/TR/2001/REC-SVG-20010904/DTD/svg10.dtd">
<svg version="1.0" xmlns="http://www.w3.org/2000/svg"
 width="8192.000000pt" height="6608.000000pt" viewBox="0 0 8192.000000 6608.000000"
 preserveAspectRatio="xMidYMid meet">

<g transform="translate(0.000000,6608.000000) scale(0.100000,-0.100000)"
fill="#f60" stroke="none">
<path d="M21750 63440 c-1395 -68 -2707 -310 -4195 -775 -1977 -617 -3873
-1563 -5655 -2820 -1429 -1009 -2778 -2270 -3906 -3650 -713 -873 -1406 -1877
-1921 -2785 -1047 -1845 -1733 -3865 -2047 -6026 -68 -466 -97 -745 -128
-1219 -16 -253 -16 -1153 0 -1395 87 -1272 322 -2256 779 -3265 351 -776 796
-1518 1255 -2097 l69 -87 162 123 c1063 808 2186 1385 2769 1423 l88 6 0
-2132 0 -2131 27 7 c46 12 1031 8 1243 -5 1060 -67 1915 -206 2780 -452 1676
-477 3003 -1319 3848 -2443 385 -512 658 -1032 978 -1861 117 -304 219 -611
388 -1176 160 -536 217 -709 311 -940 187 -464 431 -857 789 -1270 50 -58 190
-206 311 -330 168 -171 237 -249 288 -326 149 -225 245 -502 288 -839 20 -148
17 -546 -5 -725 -97 -809 -471 -1800 -999 -2645 -626 -1004 -1492 -1746 -2574
-2206 -751 -319 -1660 -526 -2648 -603 -589 -46 -1367 -47 -2145 -2 -705 40
-1377 72 -2080 96 -157 6 -604 13 -995 17 -1013 8 -1674 -13 -2590 -82 -110
-9 -211 -18 -224 -21 l-24 -5 6 -272 c6 -280 19 -433 63 -737 182 -1252 581
-2332 1251 -3385 217 -341 402 -580 624 -810 302 -310 573 -514 914 -685 350
-176 607 -251 1016 -294 2266 -242 4455 -216 6449 75 1656 241 3107 633 4720
1274 2730 1085 4886 2536 6560 4415 1499 1683 2402 3548 2665 5505 53 399 58
479 52 915 -3 223 -11 455 -16 515 -93 969 -292 1677 -680 2411 -451 854
-1339 1840 -2396 2661 -704 546 -1405 977 -2770 1705 -1197 639 -2211 1128
-3570 1723 -1812 793 -3285 1531 -4870 2440 -713 409 -1055 629 -1545 996
-1060 793 -1959 1737 -2632 2764 -556 848 -903 1842 -1032 2960 -66 568 -74
1292 -21 1925 43 508 192 1307 371 1985 458 1734 1260 3415 2378 4984 1032
1447 2226 2691 3503 3650 606 454 1566 1076 2248 1455 1225 682 2292 991 3226
937 222 -13 360 -37 588 -101 598 -169 1058 -494 1360 -960 115 -178 231 -429
294 -640 95 -313 189 -806 218 -1140 15 -170 6 -554 -16 -715 -78 -578 -330
-1288 -716 -2017 -322 -610 -674 -1194 -1617 -2687 -970 -1537 -1290 -2083
-1520 -2591 -296 -655 -781 -1994 -1435 -3965 -266 -800 -499 -1517 -495
-1520 2 -2 41 83 87 188 327 744 721 1477 1106 2057 686 1033 1355 1612 1984
1716 161 26 347 16 521 -29 359 -92 919 -285 2364 -813 1383 -507 1717 -624
2168 -759 2925 -879 5945 -1048 7931 -445 429 130 778 289 1227 558 1100 659
2031 1621 2705 2796 253 442 456 890 605 1336 38 113 99 273 135 355 171 388
291 766 346 1085 29 172 37 467 15 605 -87 571 -460 946 -1250 1260 -322 128
-641 226 -1481 455 -809 221 -1161 325 -1600 474 -1057 357 -1845 750 -2850
1419 -648 432 -1142 827 -1609 1287 -453 447 -760 819 -1111 1350 -195 294
-322 504 -652 1080 -321 558 -378 653 -538 895 -867 1312 -1903 2081 -3423
2541 -789 238 -1597 374 -2657 445 -205 14 -1206 20 -1435 9z m5868 -4636
c420 -86 746 -413 838 -839 22 -105 23 -322 0 -422 -48 -217 -133 -377 -284
-535 -141 -146 -304 -243 -500 -295 -87 -24 -115 -27 -272 -27 -147 0 -187 4
-252 22 -404 111 -679 386 -790 790 -18 65 -21 105 -22 252 0 158 3 184 26
272 90 329 321 594 633 723 196 81 415 102 623 59z"/>
<path d="M70250 53783 c-232 -25 -473 -112 -671 -244 -108 -72 -315 -273 -402
-389 -62 -83 -220 -351 -416 -704 -616 -1106 -1207 -2384 -1756 -3795 -116
-299 -333 -881 -405 -1088 l-33 -93 -781 0 c-3818 -1 -6772 -262 -8762 -775
-245 -63 -355 -107 -475 -187 -262 -175 -417 -442 -479 -822 -90 -550 -8
-1142 247 -1786 137 -346 302 -638 501 -886 251 -314 545 -484 836 -484 112 0
169 14 506 125 1946 641 4309 1055 7239 1270 l94 7 -7 -23 c-31 -110 -250
-986 -305 -1224 -770 -3320 -1292 -7573 -1486 -12108 l-16 -359 -58 -171
c-196 -571 -472 -1276 -709 -1812 -121 -274 -404 -840 -542 -1085 -413 -734
-913 -1452 -1404 -2016 -173 -199 -655 -679 -841 -838 -443 -379 -787 -620
-1150 -807 -465 -239 -892 -371 -1415 -436 -203 -25 -686 -25 -885 0 -574 73
-977 233 -1425 565 -311 231 -559 478 -796 796 -143 190 -250 365 -370 606
-247 494 -416 999 -493 1480 -44 270 -61 437 -61 596 0 124 11 239 25 252 2 2
93 10 202 18 1614 111 2988 497 4136 1163 1172 680 2025 1493 2607 2486 107
183 293 561 369 751 365 913 495 1864 380 2796 -142 1159 -625 2036 -1471
2674 -722 543 -1539 877 -2478 1013 -339 49 -447 56 -885 56 -525 0 -815 -23
-1274 -101 -1431 -242 -2591 -856 -3692 -1954 -679 -677 -1209 -1419 -1665
-2330 -687 -1373 -1116 -2942 -1238 -4530 -49 -626 -51 -1373 -5 -1940 89
-1121 337 -2187 739 -3180 512 -1264 1301 -2311 2348 -3118 944 -726 2082
-1156 3447 -1301 679 -73 1193 -70 1830 9 1047 131 1939 424 2750 903 255 151
655 429 959 666 396 308 660 544 1072 955 585 586 987 1065 1483 1769 130 185
395 583 482 724 53 88 53 88 63 -122 9 -195 51 -796 76 -1095 187 -2178 558
-4256 1116 -6247 113 -403 248 -848 285 -942 128 -321 362 -571 672 -716 256
-120 530 -172 957 -182 426 -10 778 37 1210 162 585 169 1024 381 1395 673
109 86 317 299 372 382 173 259 219 522 143 813 -11 43 -66 180 -121 304 -753
1698 -1284 3500 -1613 5478 -241 1446 -358 2876 -386 4704 -34 2262 118 4718
461 7446 402 3204 1054 5937 1966 8243 l77 195 141 -7 c1985 -97 4065 -407
5770 -859 l270 -71 160 0 c185 0 262 17 404 84 158 76 285 182 420 350 350
437 534 920 548 1440 6 205 -7 313 -52 441 -59 168 -175 307 -330 394 -182
102 -1210 434 -1960 634 -1057 281 -2409 537 -3643 688 l-143 18 101 165 c520
845 1164 1699 1784 2367 273 294 322 356 417 536 99 189 142 364 142 582 1
335 -100 622 -360 1023 -296 457 -711 863 -1258 1235 -670 453 -1311 702
-2015 782 -121 13 -378 18 -470 8z m-12837 -18973 c399 -78 690 -297 870 -655
133 -266 197 -577 183 -899 -25 -599 -250 -1188 -662 -1736 -434 -576 -1139
-1108 -1883 -1420 -590 -248 -1272 -413 -2021 -489 -264 -27 -290 -28 -290
-15 0 23 40 414 55 534 141 1141 442 2115 877 2845 460 770 991 1308 1578
1601 292 145 538 220 850 258 84 10 339 -3 443 -24z"/>
<path d="M35220 39344 c-422 -36 -716 -107 -1063 -257 -552 -239 -923 -674
-1103 -1292 -65 -223 -327 -1677 -518 -2875 -645 -4036 -1085 -8643 -1206
-12625 -45 -1476 -45 -3341 0 -4755 54 -1692 164 -3390 320 -4930 351 -3460
1036 -6608 2046 -9393 152 -421 234 -566 424 -757 207 -208 466 -335 795 -390
277 -46 805 -22 1207 55 914 177 1901 652 2608 1255 231 196 497 489 641 705
74 109 169 302 204 410 73 227 73 480 0 694 -61 181 -141 312 -325 536 -743
903 -1333 2010 -1771 3325 -668 2006 -1063 3996 -1298 6530 -112 1203 -154
2161 -155 3545 0 935 11 1300 60 1945 25 334 84 863 97 876 3 3 52 -22 109
-55 423 -243 904 -468 1338 -626 1179 -428 2314 -514 3448 -260 1838 410 3458
1592 4707 3434 717 1058 1266 2289 1674 3756 272 977 432 2299 392 3240 -45
1046 -238 1851 -641 2670 -792 1609 -2075 2541 -3775 2742 -189 22 -782 25
-975 5 -486 -51 -951 -158 -1420 -328 -825 -297 -1503 -704 -2225 -1335 -160
-140 -571 -549 -726 -724 -439 -493 -885 -1095 -1253 -1689 -47 -77 -86 -132
-86 -122 0 87 163 1032 300 1736 267 1381 468 2303 595 2741 155 535 115 945
-130 1314 -149 223 -425 446 -750 605 -315 155 -572 226 -990 275 -128 15
-467 27 -555 19z m5950 -6054 c226 -24 360 -58 568 -147 613 -260 1025 -764
1228 -1503 230 -835 242 -1751 38 -2795 -187 -949 -512 -1833 -968 -2629 -624
-1088 -1295 -1787 -2121 -2212 -383 -197 -748 -322 -1100 -376 -169 -25 -506
-30 -680 -9 -563 67 -1116 278 -1742 664 l-133 81 0 241 c1 1337 392 3153
1027 4765 443 1125 923 1979 1499 2671 152 183 525 559 677 684 396 322 837
518 1272 564 114 12 324 12 435 1z"/>
<path d="M14723 31816 c-265 -51 -506 -199 -665 -410 -197 -262 -266 -603
-185 -917 143 -552 702 -900 1257 -784 614 129 988 752 813 1354 -103 356
-399 643 -762 738 -120 31 -344 40 -458 19z"/>
</g>
</svg>
